<svg width="241" height="230" viewBox="0 0 241 230" fill="none" xmlns="http://www.w3.org/2000/svg">
<path d="M104.35 193.438C108.58 197.668 109.724 203.384 106.903 206.203C104.083 209.023 98.3681 207.88 94.1379 203.65C93.9942 203.507 93.8632 203.357 93.7264 203.21L96.2651 200.672C99.555 203.961 103.746 205.105 105.626 203.225C107.506 201.345 106.362 197.153 103.073 193.864L103.086 193.876L103.074 193.863C99.3142 190.103 94.1701 189.151 91.5854 191.735C90.3353 192.985 89.9203 194.835 90.2416 196.835C89.7485 194.488 90.1554 192.314 91.5854 190.885C94.4052 188.065 100.12 189.208 104.35 193.438Z" fill="#FDD888"/>
<path d="M98.9113 208.88C98.7665 208.88 98.6222 208.835 98.4981 208.747L95.5806 206.654L92.6631 208.747C92.4143 208.925 92.0809 208.925 91.8338 208.744C91.5866 208.565 91.4826 208.247 91.5751 207.957L92.6637 204.445L89.7721 202.408C89.5261 202.227 89.4244 201.908 89.5181 201.618C89.6129 201.328 89.8825 201.131 90.1877 201.129L93.7207 201.122L94.9087 197.698C95.0053 197.408 95.276 197.213 95.5812 197.213C95.8864 197.213 96.1571 197.408 96.2536 197.698L97.3261 201.122L100.974 201.129C101.28 201.131 101.55 201.328 101.644 201.618C101.738 201.908 101.636 202.227 101.39 202.408L98.4981 204.445L99.5861 207.957C99.6792 208.247 99.574 208.565 99.328 208.744C99.2033 208.835 99.0573 208.88 98.9113 208.88Z" fill="#FFAC33"/>
<path d="M120.698 195.011C121.302 195.006 121.788 195.169 122.157 195.5C122.519 195.831 122.703 196.282 122.708 196.854C122.713 197.432 122.54 197.889 122.189 198.226C121.832 198.563 121.346 198.734 120.729 198.739C120.113 198.744 119.626 198.578 119.27 198.241C118.908 197.904 118.724 197.452 118.72 196.887C118.715 196.328 118.894 195.877 119.257 195.534C119.614 195.191 120.094 195.016 120.698 195.011Z" fill="white"/>
<path d="M133.243 194.228L134.747 208.406L124.793 209.461L124.529 206.97L131.407 206.241L130.432 197.044L123.458 197.784L123.194 195.293L133.243 194.228ZM132.031 200.43L132.295 202.921L125.168 203.677L124.904 201.186L132.031 200.43Z" fill="white"/>
<path d="M145.258 191.307L148.731 204.807C148.338 205.007 147.915 205.203 147.459 205.393C147.006 205.589 146.532 205.77 146.038 205.937C145.545 206.11 145.044 206.263 144.534 206.394C142.55 206.904 140.964 206.927 139.777 206.464C138.592 206.006 137.803 205.015 137.411 203.491C137.158 202.508 137.183 201.624 137.484 200.836C137.787 200.056 138.334 199.384 139.125 198.823C139.909 198.263 140.908 197.827 142.121 197.515C142.394 197.445 142.647 197.383 142.879 197.33C143.112 197.283 143.352 197.235 143.597 197.185L142.282 192.072L145.258 191.307ZM137.132 193.397L143.215 198.636L139.968 199.471L133.82 194.249L137.132 193.397ZM142.645 199.787C141.644 200.045 140.946 200.41 140.55 200.883C140.154 201.356 140.057 201.982 140.257 202.759C140.388 203.269 140.598 203.66 140.886 203.93C141.176 204.207 141.55 204.37 142.006 204.418C142.463 204.466 143.012 204.408 143.652 204.243C143.97 204.162 144.259 204.074 144.52 203.98C144.781 203.887 145.029 203.783 145.265 203.669L144.185 199.471C144.002 199.505 143.83 199.532 143.67 199.554C143.505 199.583 143.341 199.615 143.177 199.65C143.009 199.694 142.832 199.739 142.645 199.787Z" fill="white"/>
<path d="M152.161 188.283C153.432 187.727 154.562 187.474 155.552 187.525C156.542 187.576 157.411 187.929 158.159 188.583C158.91 189.242 159.56 190.199 160.108 191.452L163.455 199.105L160.595 200.355L157.125 192.42C156.672 191.385 156.123 190.731 155.479 190.459C154.834 190.187 154.07 190.244 153.188 190.63C152.305 191.016 151.748 191.537 151.516 192.192C151.278 192.85 151.385 193.697 151.838 194.733L155.308 202.668L152.501 203.895L149.155 196.242C148.606 194.989 148.342 193.864 148.362 192.867C148.384 191.876 148.71 191.001 149.338 190.243C149.967 189.484 150.908 188.831 152.161 188.283Z" fill="white"/>
<path d="M164.576 181.738L170.838 191.569L174.633 189.152L176.03 191.346L165.801 197.862L164.403 195.668L168.19 193.256L161.927 183.425L164.576 181.738Z" fill="white"/>
<path d="M173.064 174.98C174.105 174.063 175.105 173.478 176.063 173.224C177.021 172.971 177.956 173.042 178.868 173.436C179.785 173.836 180.695 174.549 181.6 175.575L187.12 181.843L184.778 183.906L179.054 177.407C178.307 176.559 177.585 176.103 176.888 176.041C176.191 175.979 175.481 176.266 174.758 176.903C174.035 177.539 173.663 178.205 173.642 178.9C173.616 179.599 173.976 180.373 174.723 181.221L180.448 187.72L178.149 189.745L172.628 183.477C171.724 182.451 171.129 181.46 170.844 180.504C170.563 179.554 170.606 178.621 170.974 177.707C171.341 176.793 172.038 175.884 173.064 174.98Z" fill="white"/>
<path d="M184.602 162.934L195.525 172.097L189.111 179.743L187.155 178.103L191.557 172.855L182.59 165.333L184.602 162.934ZM187.675 168.115L189.631 169.755L185.13 175.121L183.174 173.48L187.675 168.115Z" fill="white"/>
<path d="M192.496 150.001L204.924 156.988L200.019 165.713L197.835 164.485L201.225 158.456L193.164 153.924L189.727 160.037L187.544 158.809L192.496 150.001ZM196.85 154.581L199.033 155.809L195.521 162.057L193.337 160.829L196.85 154.581Z" fill="white"/>
<path d="M197.531 137.167L210.889 142.153L209.794 145.086L204.559 143.132L202.504 148.637L207.739 150.591L206.644 153.525L193.287 148.539L194.381 145.605L199.923 147.674L201.978 142.169L196.437 140.1L197.531 137.167Z" fill="white"/>
<path d="M199.19 129.203L210.613 131.524L211.509 127.116L214.058 127.634L211.643 139.519L209.094 139.001L209.988 134.602L198.564 132.281L199.19 129.203Z" fill="white"/>
<path d="M200.535 110.789L214.792 110.937L214.688 120.946L212.183 120.92L212.255 114.003L203.007 113.908L202.934 120.92L200.43 120.894L200.535 110.789ZM206.555 112.711L209.06 112.737L208.986 119.904L206.481 119.878L206.555 112.711Z" fill="white"/>
<path d="M199.946 106.776C199.796 105.604 199.799 104.545 199.956 103.599C200.12 102.652 200.451 101.823 200.949 101.112C201.454 100.406 202.142 99.8323 203.011 99.3908C203.88 98.9492 204.952 98.6469 206.226 98.4837C207.844 98.2765 209.229 98.397 210.381 98.8452C211.539 99.2926 212.457 100.043 213.136 101.095C213.821 102.147 214.266 103.472 214.47 105.071C214.54 105.613 214.578 106.139 214.585 106.65C214.599 107.159 214.579 107.66 214.525 108.153L211.964 108.481C212.015 108.021 212.04 107.555 212.038 107.083C212.036 106.617 212.004 106.138 211.941 105.648C211.811 104.629 211.544 103.805 211.139 103.177C210.742 102.554 210.179 102.121 209.448 101.878C208.718 101.635 207.795 101.585 206.68 101.728C205.527 101.875 204.628 102.156 203.981 102.569C203.342 102.987 202.911 103.541 202.689 104.23C202.467 104.925 202.419 105.763 202.544 106.744C202.606 107.229 202.706 107.705 202.844 108.173C202.988 108.64 203.161 109.11 203.364 109.582L200.813 109.909C200.615 109.475 200.439 108.986 200.285 108.442C200.132 107.905 200.019 107.349 199.946 106.776Z" fill="white"/>
<path d="M195.591 86.3911L209.284 82.4193L210.159 85.4355L202.076 94.8116L201.925 94.2934L211.89 91.4031L212.711 94.2343L199.018 98.2061L198.14 95.1806L206.226 85.8138L206.377 86.332L196.412 89.2222L195.591 86.3911Z" fill="white"/>
<path d="M190.866 76.2588L203.776 70.2083L208.023 79.2716L205.755 80.3345L202.82 74.0713L194.446 77.9959L197.422 84.3463L195.154 85.4092L190.866 76.2588ZM197.124 75.379L199.392 74.3161L202.434 80.8061L200.166 81.869L197.124 75.379Z" fill="white"/>
<path d="M188.337 72.1648L200.583 64.8636L202.187 67.5528L189.94 74.854L188.337 72.1648Z" fill="white"/>
<path d="M181.138 62.0989L192.283 53.7256C192.618 54.0117 192.961 54.3287 193.311 54.6765C193.666 55.0204 194.015 55.3888 194.358 55.7815C194.706 56.1704 195.039 56.5754 195.355 56.9964C196.586 58.6344 197.214 60.0904 197.239 61.3646C197.27 62.6349 196.656 63.7426 195.398 64.6878C194.587 65.2973 193.76 65.6134 192.917 65.6359C192.08 65.6546 191.251 65.4061 190.429 64.8905C189.612 64.3799 188.827 63.6241 188.075 62.6228C187.905 62.3969 187.751 62.187 187.614 61.9932C187.481 61.7955 187.345 61.5926 187.205 61.3847L182.984 64.5558L181.138 62.0989ZM186.178 68.8072L188.692 61.183L190.706 63.8633L188.233 71.5414L186.178 68.8072ZM189.973 61.2686C190.595 62.0953 191.199 62.6009 191.788 62.7853C192.376 62.9698 192.991 62.8209 193.633 62.3387C194.054 62.0224 194.335 61.6792 194.474 61.3091C194.619 60.9352 194.626 60.528 194.496 60.0876C194.366 59.6471 194.103 59.1625 193.705 58.6336C193.508 58.3717 193.317 58.1381 193.13 57.9328C192.944 57.7274 192.753 57.5375 192.558 57.3629L189.092 59.9669C189.193 60.1236 189.285 60.2718 189.366 60.4118C189.456 60.553 189.548 60.6923 189.644 60.8296C189.748 60.9683 189.858 61.1146 189.973 61.2686Z" fill="white"/>
<path d="M173.25 54.1813L183.281 44.0485L190.394 51.0901L188.632 52.8702L183.716 48.0041L177.21 54.5767L182.194 59.5105L180.432 61.2906L173.25 54.1813ZM178.821 51.1965L180.583 49.4165L185.677 54.4587L183.915 56.2388L178.821 51.1965Z" fill="white"/>
<path d="M163.871 47.0555L172.205 35.81C172.822 36.0993 173.437 36.4234 174.051 36.7821C174.67 37.1447 175.296 37.5612 175.931 38.0315C177.634 39.2935 178.666 40.5747 179.03 41.8751C179.402 43.1742 179.056 44.5409 177.993 45.9753C176.991 47.3271 175.812 48.0442 174.456 48.1264C173.106 48.2124 171.605 47.6435 169.954 46.4198C169.757 46.2745 169.574 46.1342 169.402 45.999C169.234 45.8587 169.061 45.71 168.881 45.5531L166.386 48.9198L163.871 47.0555ZM171.384 44.5543C172.246 45.1929 173.006 45.4885 173.665 45.4411C174.327 45.3886 174.951 44.9676 175.536 44.1781C176.125 43.3835 176.35 42.6591 176.212 42.0048C176.082 41.3491 175.599 40.7116 174.763 40.0921C174.531 39.92 174.316 39.7728 174.119 39.6506C173.926 39.5233 173.723 39.4088 173.51 39.3073L170.298 43.6414C170.474 43.8035 170.643 43.9574 170.807 44.1029C170.975 44.2432 171.167 44.3937 171.384 44.5543Z" fill="white"/>
<path d="M160.794 45.2578L160.13 39.0918L159.588 36.2515L158.623 27.9623L161.686 29.5885L162.301 35.0853L162.843 37.9471L163.849 46.8795L160.794 45.2578ZM151.631 40.3926L159.588 36.2515L162.301 35.0853L167.199 32.5158L170.186 34.1014L162.843 37.9471L160.13 39.0918L154.651 41.9962L151.631 40.3926Z" fill="white"/>
<path d="M142.532 37.3155L147.315 23.8839L156.744 27.2413L155.904 29.6009L149.388 27.2808L146.286 35.9932L152.893 38.3456L152.052 40.7052L142.532 37.3155ZM146.31 32.2489L147.15 29.8893L153.902 32.2934L153.062 34.653L146.31 32.2489Z" fill="white"/>
<path d="M135.606 35.9398C135.014 35.8227 134.571 35.5648 134.276 35.1661C133.988 34.7687 133.9 34.2897 134.011 33.7289C134.123 33.1619 134.385 32.7489 134.796 32.4898C135.214 32.2319 135.725 32.1628 136.33 32.2825C136.934 32.4021 137.377 32.6631 137.658 33.0656C137.944 33.4693 138.033 33.9483 137.923 34.5028C137.815 35.0509 137.548 35.4564 137.123 35.7193C136.704 35.9834 136.198 36.0569 135.606 35.9398Z" fill="white"/>
<path d="M123.161 34.1706L124.556 19.9814L134.517 20.9606L134.272 23.4533L127.389 22.7766L126.484 31.9804L133.463 32.6665L133.218 35.1592L123.161 34.1706ZM125.603 28.3412L125.848 25.8485L132.981 26.5497L132.736 29.0424L125.603 28.3412Z" fill="white"/>
<path d="M110.804 34.6012L110.133 20.6777C110.558 20.5607 111.013 20.4552 111.497 20.3612C111.981 20.2607 112.482 20.1787 112.999 20.1152C113.517 20.0453 114.039 19.9976 114.565 19.9723C116.611 19.8737 118.168 20.1716 119.237 20.866C120.305 21.5539 120.877 22.6837 120.953 24.2554C121.002 25.2689 120.799 26.1307 120.345 26.8405C119.89 27.544 119.219 28.0907 118.331 28.4807C117.449 28.8704 116.383 29.0953 115.132 29.1556C114.85 29.1692 114.59 29.1785 114.353 29.1835C114.115 29.1821 113.87 29.1811 113.619 29.1803L113.873 34.4533L110.804 34.6012ZM119.185 34.1974L114.288 27.8364L117.636 27.6751L122.601 34.0329L119.185 34.1974ZM115.078 26.8242C116.111 26.7745 116.869 26.5579 117.352 26.1746C117.835 25.7912 118.057 25.1986 118.018 24.3968C117.993 23.8707 117.866 23.446 117.639 23.1227C117.411 22.7929 117.078 22.5581 116.64 22.4185C116.203 22.2788 115.654 22.2249 114.993 22.2567C114.666 22.2725 114.365 22.2998 114.09 22.3388C113.816 22.3777 113.551 22.4291 113.297 22.4927L113.506 26.8228C113.692 26.8267 113.866 26.8344 114.028 26.8459C114.195 26.8507 114.362 26.8523 114.529 26.8506C114.703 26.8423 114.886 26.8335 115.078 26.8242Z" fill="white"/>
<path d="M103.432 36.1668C102.075 36.4541 100.917 36.4727 99.9584 36.2227C98.9996 35.9727 98.2197 35.4518 97.6188 34.66C97.0166 33.8618 96.5738 32.7936 96.2905 31.4553L94.5608 23.2841L97.6144 22.6377L99.408 31.1105C99.642 32.2163 100.047 32.9675 100.624 33.3642C101.2 33.7608 101.959 33.8593 102.902 33.6598C103.844 33.4603 104.495 33.0631 104.855 32.4684C105.221 31.8722 105.287 31.0213 105.053 29.9154L103.26 21.4427L106.257 20.8082L107.987 28.9794C108.27 30.3177 108.301 31.473 108.08 32.4454C107.858 33.4115 107.362 34.2024 106.593 34.8182C105.824 35.4339 104.771 35.8835 103.432 36.1668Z" fill="white"/>
<path d="M89.9506 40.0658L85.8056 29.1711L81.6008 30.7708L80.6759 28.3398L92.0118 24.0269L92.9367 26.458L88.7409 28.0543L92.8858 38.949L89.9506 40.0658Z" fill="white"/>
<path d="M80.2705 44.9675C79.0656 45.6549 77.9684 46.0258 76.979 46.0801C75.9896 46.1344 75.0881 45.8761 74.2743 45.3052C73.4574 44.7288 72.71 43.8464 72.0321 42.6583L67.893 35.4037L70.604 33.8569L74.8959 41.3792C75.456 42.361 76.071 42.9529 76.7408 43.1549C77.4106 43.3569 78.1639 43.2192 79.0006 42.7417C79.8374 42.2643 80.3364 41.6875 80.4978 41.0113C80.6647 40.332 80.4681 39.5014 79.908 38.5196L75.6161 30.9973L78.2769 29.4792L82.416 36.7337C83.0939 37.9219 83.476 39.0127 83.5621 40.0061C83.6451 40.9939 83.4143 41.8983 82.8697 42.7192C82.3251 43.5402 81.4587 44.2896 80.2705 44.9675Z" fill="white"/>
<path d="M66.5353 54.431L57.6912 43.248L65.5193 37.0571L67.1029 39.0594L61.7305 43.3082L68.991 52.4889L66.5353 54.431ZM64.5737 48.7359L62.9901 46.7335L68.4834 42.3892L70.067 44.3915L64.5737 48.7359Z" fill="white"/>
<path d="M56.1887 65.5007L45.4307 56.1442L51.9992 48.5918L53.8891 50.2355L49.35 55.4546L56.3281 61.5237L60.9305 56.2319L62.8205 57.8756L56.1887 65.5007ZM52.8512 60.1339L50.9613 58.4902L55.6648 53.0821L57.5548 54.7258L52.8512 60.1339Z" fill="white"/>
<path d="M48.662 77.0509L36.589 69.4666L38.2544 66.8155L42.9857 69.7877L46.1117 64.8116L41.3804 61.8394L43.0458 59.1882L55.1189 66.7725L53.4534 69.4237L48.4447 66.2772L45.3188 71.2533L50.3275 74.3997L48.662 77.0509Z" fill="white"/>
<path d="M45.4276 84.5147L34.71 79.9313L32.941 84.0678L30.5495 83.0451L35.3185 71.8934L37.71 72.9161L35.9449 77.0438L46.6625 81.6271L45.4276 84.5147Z" fill="white"/>
<path d="M40.3867 102.276L26.4543 99.248L28.58 89.4671L31.0276 89.999L29.5586 96.7581L38.5958 98.7222L40.0853 91.869L42.5328 92.4009L40.3867 102.276ZM34.8791 99.1763L32.4315 98.6444L33.9537 91.6405L36.4013 92.1725L34.8791 99.1763Z" fill="white"/>
<path d="M40.1518 106.326C40.0617 107.504 39.8441 108.54 39.4987 109.435C39.147 110.329 38.6553 111.074 38.0236 111.67C37.386 112.259 36.5969 112.682 35.6562 112.938C34.7155 113.195 33.6048 113.274 32.3241 113.177C30.6976 113.052 29.3657 112.654 28.3285 111.982C27.2849 111.31 26.5372 110.39 26.0854 109.222C25.6272 108.053 25.4595 106.665 25.5823 105.058C25.6239 104.513 25.6929 103.99 25.7892 103.489C25.8791 102.987 26 102.5 26.152 102.029L28.7262 102.226C28.5831 102.665 28.4649 103.117 28.3715 103.58C28.2787 104.037 28.2134 104.512 28.1757 105.005C28.0974 106.029 28.1927 106.89 28.4615 107.587C28.7244 108.277 29.1889 108.815 29.855 109.2C30.5212 109.586 31.4146 109.822 32.5352 109.908C33.6943 109.996 34.6321 109.904 35.3487 109.63C36.0593 109.349 36.5933 108.894 36.9506 108.264C37.3083 107.628 37.5249 106.817 37.6003 105.831C37.6374 105.344 37.636 104.858 37.5958 104.372C37.5493 103.885 37.4744 103.39 37.3712 102.886L39.9359 103.082C40.042 103.548 40.1154 104.062 40.1561 104.625C40.1973 105.183 40.1958 105.749 40.1518 106.326Z" fill="white"/>
<path d="M40.294 127.17L26.0805 128.29L25.8337 125.16L35.6462 117.612L35.6886 118.15L25.3454 118.965L25.1137 116.026L39.3272 114.906L39.5748 118.046L29.7616 125.584L29.7192 125.046L40.0624 124.231L40.294 127.17Z" fill="white"/>
<path d="M42.8727 138.049L29.0057 141.363L26.6788 131.628L29.1149 131.046L30.7229 137.773L39.7177 135.623L38.0873 128.802L40.5234 128.22L42.8727 138.049ZM36.5657 137.645L34.1296 138.227L32.4634 131.256L34.8995 130.674L36.5657 137.645Z" fill="white"/>
<path d="M44.5207 142.569L31.0509 147.243L30.0246 144.285L43.4944 139.612L44.5207 142.569Z" fill="white"/>
<path d="M49.5352 153.883L36.9275 159.83C36.6568 159.482 36.3854 159.102 36.1133 158.69C35.8354 158.282 35.568 157.851 35.3113 157.397C35.0487 156.945 34.8051 156.481 34.5804 156.005C33.7065 154.152 33.3859 152.599 33.6186 151.346C33.8455 150.096 34.6705 149.135 36.0936 148.464C37.0114 148.031 37.8852 147.889 38.7149 148.037C39.5388 148.188 40.3008 148.599 41.0007 149.27C41.698 149.936 42.3137 150.835 42.8479 151.967C42.9685 152.223 43.0765 152.459 43.1721 152.677C43.2618 152.897 43.3543 153.124 43.4496 153.356L48.2243 151.104L49.5352 153.883ZM45.9558 146.294L41.9523 153.252L40.5222 150.22L44.497 143.201L45.9558 146.294ZM40.7147 152.909C40.2736 151.974 39.7836 151.357 39.2446 151.057C38.7056 150.757 38.0731 150.779 37.347 151.121C36.8707 151.346 36.5267 151.625 36.3151 151.96C36.0977 152.296 36.0081 152.694 36.0464 153.151C36.0848 153.609 36.245 154.137 36.5272 154.735C36.667 155.032 36.8073 155.299 36.9484 155.538C37.0894 155.777 37.238 156.001 37.394 156.212L41.3149 154.363C41.247 154.189 41.1876 154.025 41.1365 153.871C41.0769 153.715 41.0144 153.56 40.949 153.406C40.875 153.249 40.7969 153.084 40.7147 152.909Z" fill="white"/>
<path d="M55.659 163.232L43.7868 171.127L38.2443 162.792L40.33 161.406L44.1601 167.165L51.861 162.044L47.9776 156.204L50.0632 154.817L55.659 163.232ZM49.5998 165.029L47.5142 166.416L43.5454 160.447L45.631 159.06L49.5998 165.029Z" fill="white"/>
<path d="M63.4042 172.108L52.9675 181.435C52.4218 181.027 51.8849 180.585 51.3567 180.11C50.8241 179.63 50.2947 179.095 49.7683 178.506C48.356 176.926 47.6035 175.462 47.5108 174.115C47.409 172.768 48.0238 171.499 49.355 170.31C50.6096 169.188 51.9092 168.724 53.2538 168.918C54.594 169.107 55.9489 169.968 57.3184 171.5C57.4811 171.682 57.6327 171.857 57.7735 172.024C57.9094 172.195 58.0493 172.376 58.1933 172.566L61.3179 169.773L63.4042 172.108ZM55.5401 173.038C54.8254 172.238 54.1407 171.795 53.4861 171.708C52.8266 171.626 52.1306 171.912 51.3979 172.566C50.6605 173.226 50.2935 173.89 50.2969 174.558C50.2912 175.227 50.635 175.949 51.3283 176.724C51.5209 176.94 51.7014 177.127 51.8699 177.287C52.0335 177.451 52.2091 177.604 52.3967 177.746L56.4191 174.151C56.28 173.957 56.1448 173.772 56.0136 173.596C55.8777 173.425 55.7199 173.239 55.5401 173.038Z" fill="white"/>
<path d="M66.053 174.49L65.4563 180.663L65.4132 183.554L64.6823 191.868L62.0114 189.655L62.5201 184.148L62.568 181.235L63.3895 172.284L66.053 174.49ZM74.0437 181.108L65.4132 183.554L62.5201 184.148L57.2036 185.674L54.5994 183.517L62.568 181.235L65.4563 180.663L71.4098 178.927L74.0437 181.108Z" fill="white"/>
<path d="M82.3317 185.962L74.9318 198.149L66.3763 192.954L67.6763 190.813L73.5886 194.403L78.3885 186.498L72.3939 182.858L73.6939 180.717L82.3317 185.962ZM77.6075 190.16L76.3076 192.301L70.1812 188.581L71.4811 186.44L77.6075 190.16Z" fill="white"/>
</svg>
