<svg width="19" height="18" viewBox="0 0 19 18" fill="none" xmlns="http://www.w3.org/2000/svg">
<path d="M17.9977 17.3795V17.3788H18.002V11.0327C18.002 7.92812 17.3303 5.53662 13.6828 5.53662C11.9294 5.53662 10.7527 6.49409 10.2723 7.40181H10.2216V5.82646H6.76321V17.3788H10.3643V11.6585C10.3643 10.1524 10.6513 8.69597 12.5257 8.69597C14.3726 8.69597 14.4002 10.4148 14.4002 11.7551V17.3795H17.9977Z" fill="black"/>
<path d="M0.898834 5.84741H4.50429V17.3997H0.898834V5.84741Z" fill="black"/>
<path d="M2.71107 0.095459C1.55828 0.095459 0.622864 1.02625 0.622864 2.17333C0.622864 3.32042 1.55828 4.27068 2.71107 4.27068C3.86386 4.27068 4.79928 3.32042 4.79928 2.17333C4.79855 1.02625 3.86314 0.095459 2.71107 0.095459V0.095459Z" fill="black"/>
</svg>
