<svg width="19" height="20" viewBox="0 0 19 20" fill="none" xmlns="http://www.w3.org/2000/svg">
<path d="M12.8868 0.421631H5.85763C2.62305 0.421631 0 3.0317 0 6.25027V13.2446C0 16.4632 2.62305 19.0733 5.85763 19.0733H12.8868C16.1214 19.0733 18.7444 16.4632 18.7444 13.2446V6.25027C18.7444 3.0317 16.1214 0.421631 12.8868 0.421631ZM16.9871 13.2446C16.9871 15.4945 15.1478 17.3247 12.8868 17.3247H5.85763C3.59659 17.3247 1.75729 15.4945 1.75729 13.2446V6.25027C1.75729 4.00042 3.59659 2.17022 5.85763 2.17022H12.8868C15.1478 2.17022 16.9871 4.00042 16.9871 6.25027V13.2446Z" fill="black"/>
<path d="M9.38174 5.09521C6.79384 5.09521 4.69563 7.18303 4.69563 9.75813C4.69563 12.3332 6.79384 14.421 9.38174 14.421C11.9696 14.421 14.0678 12.3332 14.0678 9.75813C14.0678 7.18303 11.9696 5.09521 9.38174 5.09521ZM9.38174 12.6724C7.76738 12.6724 6.45292 11.3645 6.45292 9.75813C6.45292 8.15059 7.76738 6.84381 9.38174 6.84381C10.9961 6.84381 12.3106 8.15059 12.3106 9.75813C12.3106 11.3645 10.9961 12.6724 9.38174 12.6724Z" fill="black"/>
<path d="M14.3969 5.37095C14.7427 5.37095 15.0229 5.09206 15.0229 4.74804C15.0229 4.40401 14.7427 4.12512 14.3969 4.12512C14.0512 4.12512 13.7709 4.40401 13.7709 4.74804C13.7709 5.09206 14.0512 5.37095 14.3969 5.37095Z" fill="black"/>
</svg>
