<svg width="12" height="21" viewBox="0 0 12 21" fill="none" xmlns="http://www.w3.org/2000/svg">
<path d="M11.2219 0.862758L8.64441 0.858643C5.74872 0.858643 3.87739 2.76906 3.87739 5.72594V7.97009H1.28587C1.06193 7.97009 0.880585 8.15074 0.880585 8.37357V11.6251C0.880585 11.8479 1.06213 12.0284 1.28587 12.0284H3.87739V20.233C3.87739 20.4558 4.05873 20.6363 4.28267 20.6363H7.66388C7.88782 20.6363 8.06916 20.4556 8.06916 20.233V12.0284H11.0993C11.3232 12.0284 11.5045 11.8479 11.5045 11.6251L11.5058 8.37357C11.5058 8.26658 11.463 8.16411 11.3871 8.0884C11.3112 8.01268 11.2078 7.97009 11.1003 7.97009H8.06916V6.0677C8.06916 5.15333 8.28814 4.68915 9.48516 4.68915L11.2215 4.68853C11.4452 4.68853 11.6265 4.50788 11.6265 4.28526V1.26603C11.6265 1.04361 11.4454 0.863169 11.2219 0.862758Z" fill="black"/>
</svg>
