<svg width="136" height="39" viewBox="0 0 136 39" fill="none" xmlns="http://www.w3.org/2000/svg">
<path d="M10.2307 27.2952H7.90406V20.156C7.90406 19.0405 7.71283 18.2119 7.2985 17.67C6.88418 17.1282 6.27863 16.8733 5.38623 16.8733C4.39822 16.8733 3.63331 17.2557 3.12337 18.0525C2.58156 18.8493 2.32659 19.9648 2.32659 21.4627V27.2633H0V15.216H2.32659V16.9051C2.67718 16.204 3.18712 15.694 3.85641 15.3116C4.49384 14.961 5.29062 14.7698 6.21489 14.7698C7.45786 14.7698 8.44587 15.1841 9.14703 16.0128C9.8482 16.8414 10.2307 18.0206 10.2307 19.5186V27.2952Z" fill="#1059C4"/>
<path d="M24.382 27.2945H22.0554V25.4141C21.673 26.179 21.1311 26.7527 20.4619 27.1352C19.7926 27.5176 18.9639 27.7088 18.0078 27.7088C16.3505 27.7088 14.98 27.1033 13.9601 25.8922C12.9084 24.6811 12.3984 23.1194 12.3984 21.1753C12.3984 19.2949 12.9084 17.7332 13.9601 16.5858C15.0119 15.4066 16.3823 14.8329 18.0715 14.8329C18.9639 14.8329 19.7607 15.0241 20.43 15.3747C21.0993 15.7253 21.6411 16.2671 22.0873 16.9683V15.2472H24.4139V27.2945H24.382ZM22.0554 21.1434C22.0554 19.8685 21.7367 18.8487 21.0674 18.1475C20.3981 17.4145 19.5057 17.0639 18.3902 17.0639C17.2747 17.0639 16.3823 17.4463 15.713 18.1794C15.0437 18.9443 14.6932 19.9323 14.6932 21.239C14.6932 22.5457 15.0119 23.5656 15.6812 24.3305C16.3505 25.0954 17.211 25.5097 18.2946 25.5097C19.4101 25.5097 20.3025 25.0954 21.0037 24.2986C21.7048 23.5019 22.0554 22.4501 22.0554 21.1434Z" fill="#1059C4"/>
<path d="M32.0618 17.3192H29.9901V27.3268H27.6635V17.3192H26.3887V15.2795H27.6635V10.4669H29.9901V15.2795H32.0618V17.3192Z" fill="#1059C4"/>
<path d="M36.876 10.3717C36.876 10.7861 36.7167 11.1685 36.4298 11.4554C36.143 11.7422 35.7605 11.9016 35.3462 11.9016C34.9319 11.9016 34.5494 11.7422 34.2626 11.4554C33.9758 11.1685 33.8164 10.7861 33.8164 10.3717C33.8164 9.95741 33.9758 9.60683 34.2626 9.28811C34.5494 9.00127 34.9319 8.84192 35.3462 8.84192C35.7605 8.84192 36.143 9.00127 36.4298 9.28811C36.7167 9.60683 36.876 9.95741 36.876 10.3717ZM36.4936 27.2953H34.167V15.248H36.4936V27.2953Z" fill="#1059C4"/>
<path d="M49.6225 15.248L43.7901 27.869L37.9258 15.248H40.5392L43.7901 22.8971L46.9772 15.248H49.6225Z" fill="#1059C4"/>
<path d="M60.9391 21.7176H51.7602C51.8558 22.9606 52.2064 23.8848 52.8119 24.5222C53.4175 25.1597 54.278 25.4784 55.3298 25.4784C56.1584 25.4784 56.8277 25.319 57.3695 25.0003C57.9113 24.6816 58.3575 24.1717 58.6762 23.5024L60.6204 24.5222C60.0786 25.574 59.3455 26.3708 58.485 26.8807C57.6245 27.3907 56.5727 27.6456 55.3298 27.6456C53.5131 27.6456 52.1108 27.0401 51.0272 25.8608C49.9754 24.6816 49.4336 23.088 49.4336 21.112C49.4336 19.2635 49.9754 17.7656 51.0909 16.5544C52.2064 15.3433 53.5768 14.7378 55.2341 14.7378C56.9233 14.7378 58.2938 15.2796 59.3455 16.3951C60.3973 17.5106 60.9072 18.9448 60.9072 20.7614V21.7176H60.9391ZM58.6444 20.124C58.5488 19.136 58.1982 18.3711 57.6245 17.8293C57.0508 17.3194 56.254 17.0325 55.266 17.0325C54.3099 17.0325 53.545 17.2875 52.9076 17.8293C52.302 18.3711 51.9195 19.136 51.7921 20.0922H58.6444V20.124Z" fill="#1059C4"/>
<path d="M94.4339 16.97C93.2866 16.97 92.3623 17.3524 91.6611 18.1173C90.96 18.8822 90.6094 19.934 90.6094 21.2726C90.6094 22.6112 90.96 23.6629 91.6293 24.4916C92.2986 25.2884 93.2228 25.7027 94.3383 25.7027C95.4857 25.7027 96.4099 25.2884 97.1111 24.4597C97.8123 23.6311 98.1947 22.5474 98.1947 21.2088C98.1947 19.8702 97.8441 18.8504 97.1748 18.0855C96.5374 17.3524 95.6132 16.97 94.4339 16.97Z" fill="#3EBF0F"/>
<path d="M133.667 9.32056C130.162 3.20129 124.744 0.0460362 117.636 0.014165C106.067 -0.0177062 94.4659 0.014165 82.8967 0.014165C79.5502 0.014165 76.3949 0.779075 73.5903 2.65948C68.5228 6.06969 65.9731 10.8822 65.9412 17.0015C65.9412 23.4714 65.9412 29.9412 65.9412 36.443C65.9412 37.0804 65.8774 37.7178 65.9093 38.3552C65.9412 38.9926 66.228 39.152 66.7698 38.8014C67.5985 38.2915 68.3953 37.7178 69.2239 37.2716C70.1482 36.7617 70.9768 36.0605 72.1879 36.0605C79.9326 36.0924 87.6773 36.0924 95.422 36.0924C102.784 36.0924 110.147 36.0924 117.509 36.0924C120.25 36.0924 122.895 35.5824 125.413 34.4351C130.194 32.2041 133.444 28.5389 135.07 23.5351C136.663 18.627 136.217 13.7825 133.667 9.32056ZM87.773 17.2246H85.6376V27.5509H83.2472V17.2246H81.9087V15.1211H83.2472V10.1492H85.6376V15.1211H87.773V17.2246ZM100.617 27.5509H98.2267V25.6067C97.8124 26.4035 97.2706 26.9772 96.5694 27.3915C95.8682 27.774 95.0396 27.9971 94.0516 27.9971C92.3305 27.9971 90.9282 27.3597 89.8446 26.1167C88.761 24.8737 88.2192 23.2483 88.2192 21.2723C88.2192 19.3281 88.761 17.7346 89.8446 16.5235C90.9282 15.3123 92.3305 14.7068 94.0835 14.7068C95.0077 14.7068 95.8045 14.898 96.5057 15.2486C97.2068 15.6311 97.7805 16.1729 98.2267 16.9059V15.1211H100.617V27.5509ZM106.418 27.5509H104.027V5.6235H106.418V27.5509ZM117.636 27.5509L112.505 20.9854V27.5509H110.115V5.6235H112.505V20.6667L117.254 15.1211H120.058L114.991 20.6986L120.505 27.5509H117.636Z" fill="#3EBF0F"/>
</svg>
